<svg xmlns="http://www.w3.org/2000/svg" version="1.1" xmlns:xlink="http://www.w3.org/1999/xlink" xmlns:svgjs="http://svgjs.dev/svgjs" width="1440" height="560" preserveAspectRatio="none" viewBox="0 0 1440 560">
    <g mask="url(&quot;#SvgjsMask1736&quot;)" fill="none">
        <rect width="1440" height="560" x="0" y="0" fill="url(&quot;#SvgjsLinearGradient1737&quot;)"></rect>
        <path d="M734.44 596.01C873.85 585.78 971.91 313.27 1216.46 312.67 1461.01 312.07 1574.44 429.42 1698.48 430.27" stroke="rgba(51,121,194,0.58)" stroke-width="2"></path>
        <path d="M726.12 611.62C864.75 587.37 936.14 244.19 1152.19 243.69 1368.25 243.19 1458.11 461 1578.27 467.69" stroke="rgba(51,121,194,0.58)" stroke-width="2"></path>
        <path d="M401.43 612.32C556.37 565.74 590.28 135.86 827.04 124.82 1063.81 113.78 1039.85 194.82 1252.66 194.82 1465.46 194.82 1570.44 125.05 1678.27 124.82" stroke="rgba(51,121,194,0.58)" stroke-width="2"></path>
        <path d="M279.75 665.69C477.16 651.38 618.48 266.42 963.19 266.03 1307.9 265.64 1467.28 481.8 1646.63 484.43" stroke="rgba(51,121,194,0.58)" stroke-width="2"></path>
        <path d="M321.8 597.52C486.16 597.22 632.98 500.55 971.46 496.65 1309.93 492.75 1444.35 222.53 1621.11 216.65" stroke="rgba(51,121,194,0.58)" stroke-width="2"></path>
    </g>
    <defs>
        <mask id="SvgjsMask1736">
            <rect width="1440" height="560" fill="#ffffff"></rect>
        </mask>
        <linearGradient x1="84.72%" y1="-39.29%" x2="15.28%" y2="139.29%" gradientUnits="userSpaceOnUse" id="SvgjsLinearGradient1737">
            <stop stop-color="#0e2a47" offset="0"></stop>
            <stop stop-color="rgba(67, 98, 137, 1)" offset="1"></stop>
        </linearGradient>
    </defs>
</svg>
